<?xml version="1.0" encoding="UTF-8"?>
<svg version="1.1" xmlns="http://www.w3.org/2000/svg" width="1000" height="1000">
<path d="M0 0 C102.36436232 -1.52933545 198.69887614 28.66241668 308.43505859 109.06201172 C309.8712577 110.29269814 311.30850327 111.52216632 312.74755859 112.74951172 C313.63443359 113.51263672 314.52130859 114.27576172 315.43505859 115.06201172 C309.76773006 121.98268952 303.42282636 128.20776361 297.09570312 134.51489258 C295.84338755 135.76692574 294.5912928 137.01917982 293.33940125 138.27163696 C289.95573583 141.65558824 286.5690051 145.03645633 283.18170023 148.41676402 C279.63649825 151.95569735 276.09414463 155.49747951 272.55148315 159.03895569 C265.84944515 165.73789071 259.14486303 172.43427341 252.43935478 179.12973458 C244.80255604 186.75534005 237.16861052 194.38379915 229.534899 202.01249492 C213.83811669 217.69883625 198.13776886 233.38160469 182.43505859 249.06201172 C178.22076752 247.47735362 175.31251097 245.54257316 171.81005859 242.68701172 C150.20148689 225.63948386 125.26434491 213.26778563 99.43505859 204.06201172 C98.64776367 203.77632324 97.86046875 203.49063477 97.04931641 203.19628906 C86.86967698 199.55191664 76.50632449 197.0540073 65.93505859 194.81201172 C64.21005127 194.44233276 64.21005127 194.44233276 62.45019531 194.06518555 C45.7909137 190.6877993 29.20999989 189.67693853 12.24755859 189.74951172 C11.35497345 189.75133453 10.46238831 189.75315735 9.54275513 189.7550354 C-4.67973477 189.80373115 -18.54863104 190.48275119 -32.56494141 193.06201172 C-33.55155762 193.23893555 -34.53817383 193.41585937 -35.5546875 193.59814453 C-63.43380978 198.70880206 -89.53552016 207.74118577 -114.56494141 221.06201172 C-115.27569824 221.43406738 -115.98645508 221.80612305 -116.71875 222.18945312 C-132.0953423 230.26947746 -146.25701852 239.88916057 -159.56494141 251.06201172 C-160.08088867 251.4891748 -160.59683594 251.91633789 -161.12841797 252.35644531 C-173.84417621 262.89916475 -185.32653884 274.07247377 -195.56494141 287.06201172 C-196.4945503 288.18143253 -197.42699978 289.29849864 -198.36181641 290.41357422 C-206.38661171 300.06567445 -213.1467288 310.28446756 -219.56494141 321.06201172 C-220.22623047 322.16585205 -220.22623047 322.16585205 -220.90087891 323.29199219 C-242.71872431 360.06002029 -256.52935905 404.43359277 -256.76806641 447.38232422 C-256.77508072 448.23560303 -256.78209503 449.08888184 -256.7893219 449.96801758 C-256.80672351 452.70773672 -256.81317482 455.44723932 -256.81494141 458.18701172 C-256.81561615 459.12575134 -256.81629089 460.06449097 -256.81698608 461.03167725 C-256.8003877 475.57899318 -256.20443407 489.72377254 -253.56494141 504.06201172 C-253.39333496 505.03654297 -253.22172852 506.01107422 -253.04492188 507.01513672 C-248.07700059 534.71829024 -238.77273633 561.22105926 -225.56494141 586.06201172 C-225.19143555 586.77566895 -224.81792969 587.48932617 -224.43310547 588.22460938 C-192.21857093 649.52878813 -135.12267194 695.00221414 -69.56494141 716.06201172 C-68.76072754 716.3261084 -67.95651367 716.59020508 -67.12792969 716.86230469 C-45.24017876 723.96210273 -21.46433975 728.14907614 1.56005859 728.26513672 C2.49674377 728.27215103 3.43342896 728.27916534 4.39849854 728.28639221 C7.41073464 728.30381757 10.42277391 728.31024626 13.43505859 728.31201172 C14.98138977 728.31302383 14.98138977 728.31302383 16.55895996 728.3140564 C32.39892617 728.29758786 47.78774894 727.71737611 63.43505859 725.06201172 C64.4732373 724.89572266 65.51141602 724.72943359 66.58105469 724.55810547 C116.53445788 716.42948178 162.71010308 696.11765107 199.43505859 661.06201172 C200.28841797 660.26150391 201.14177734 659.46099609 202.02099609 658.63623047 C208.90612582 652.00087675 214.78356675 644.75117233 220.43505859 637.06201172 C220.85255371 636.49417969 221.27004883 635.92634766 221.70019531 635.34130859 C239.7953427 610.33397282 249.14043112 582.68568126 257.43505859 553.06201172 C176.58505859 553.06201172 95.73505859 553.06201172 12.43505859 553.06201172 C12.43505859 494.32201172 12.43505859 435.58201172 12.43505859 375.06201172 C153.67505859 375.06201172 294.91505859 375.06201172 440.43505859 375.06201172 C446.16273703 404.65501696 450.66090357 432.20938256 450.62255859 462.06201172 C450.62165222 463.37409103 450.62165222 463.37409103 450.62072754 464.712677 C450.48885078 535.57794046 436.74419843 606.37898589 407.43505859 671.06201172 C407.05816895 671.90924805 406.6812793 672.75648438 406.29296875 673.62939453 C391.66402627 706.43130324 371.78565047 736.71925332 348.88818359 764.30029297 C347.55451314 765.91718914 346.24022543 767.54707806 344.93505859 769.18701172 C340.81059761 774.34258794 336.54543886 779.13465587 331.77099609 783.69873047 C329.80101955 785.69176694 327.98765604 787.72199702 326.16552734 789.84716797 C322.47044875 794.10421879 318.49724717 797.97477115 314.37255859 801.81201172 C313.25457886 802.8550647 313.25457886 802.8550647 312.11401367 803.91918945 C286.85903508 827.35272715 258.69668827 847.56722732 228.43505859 864.06201172 C227.01870117 864.83689941 227.01870117 864.83689941 225.57373047 865.62744141 C170.87592654 895.33917565 109.47629081 912.57094723 47.43505859 917.06201172 C46.74573242 917.1184082 46.05640625 917.17480469 45.34619141 917.23291016 C-48.29046925 924.85187773 -146.22022171 901.39898925 -240.56494141 843.06201172 C-241.32871094 842.56072754 -242.09248047 842.05944336 -242.87939453 841.54296875 C-260.14108861 830.1258163 -276.70821249 817.36185847 -291.98291016 803.39794922 C-293.36911021 802.14386808 -294.76115772 800.89545979 -296.1862793 799.68579102 C-302.39750753 794.38943901 -308.13498761 788.6435363 -313.89233398 782.86499023 C-315.6238884 781.12807572 -317.360725 779.39657283 -319.09814453 777.66552734 C-324.79899526 771.9687616 -330.38872196 766.24720492 -335.56494141 760.06201172 C-336.36387817 759.1231311 -336.36387817 759.1231311 -337.17895508 758.1652832 C-372.76981337 716.16308971 -401.03108256 667.92880561 -419.56494141 616.06201172 C-419.95133789 614.99047852 -420.33773437 613.91894531 -420.73583984 612.81494141 C-436.26914738 569.33990882 -445.85795117 522.317051 -446.56494141 476.06201172 C-446.58540527 474.87414062 -446.60586914 473.68626953 -446.62695312 472.46240234 C-448.17105645 373.00420788 -421.12506282 276.41237246 -343.56494141 168.06201172 C-342.69443331 167.01833803 -341.82467791 165.97403619 -340.95556641 164.92919922 C-331.22708492 153.29494541 -320.95289427 142.26308694 -310.23095703 131.54272461 C-308.56073046 129.87029522 -306.89871762 128.18997503 -305.23681641 126.50927734 C-298.65473049 119.89325877 -291.88103451 113.86727113 -284.56494141 108.06201172 C-283.47481587 107.13898462 -282.39019243 106.20935566 -281.31494141 105.26904297 C-214.81320249 47.36340951 -127.68763498 12.79562439 0 0 Z " fill="#34A853" transform="translate(498.56494140625,43.93798828125)"/>
<path d="M0 0 C102.36436232 -1.52933545 198.69887614 28.66241668 308.43505859 109.06201172 C309.8712577 110.29269814 311.30850327 111.52216632 312.74755859 112.74951172 C313.63443359 113.51263672 314.52130859 114.27576172 315.43505859 115.06201172 C309.76773006 121.98268952 303.42282636 128.20776361 297.09570312 134.51489258 C295.84338755 135.76692574 294.5912928 137.01917982 293.33940125 138.27163696 C289.95573583 141.65558824 286.5690051 145.03645633 283.18170023 148.41676402 C279.63649825 151.95569735 276.09414463 155.49747951 272.55148315 159.03895569 C265.84944515 165.73789071 259.14486303 172.43427341 252.43935478 179.12973458 C244.80255604 186.75534005 237.16861052 194.38379915 229.534899 202.01249492 C213.83811669 217.69883625 198.13776886 233.38160469 182.43505859 249.06201172 C178.22076752 247.47735362 175.31251097 245.54257316 171.81005859 242.68701172 C150.20148689 225.63948386 125.26434491 213.26778563 99.43505859 204.06201172 C98.64776367 203.77632324 97.86046875 203.49063477 97.04931641 203.19628906 C86.86967698 199.55191664 76.50632449 197.0540073 65.93505859 194.81201172 C64.21005127 194.44233276 64.21005127 194.44233276 62.45019531 194.06518555 C45.7909137 190.6877993 29.20999989 189.67693853 12.24755859 189.74951172 C11.35497345 189.75133453 10.46238831 189.75315735 9.54275513 189.7550354 C-4.67973477 189.80373115 -18.54863104 190.48275119 -32.56494141 193.06201172 C-33.55155762 193.23893555 -34.53817383 193.41585937 -35.5546875 193.59814453 C-63.43380978 198.70880206 -89.53552016 207.74118577 -114.56494141 221.06201172 C-115.27569824 221.43406738 -115.98645508 221.80612305 -116.71875 222.18945312 C-132.0953423 230.26947746 -146.25701852 239.88916057 -159.56494141 251.06201172 C-160.08088867 251.4891748 -160.59683594 251.91633789 -161.12841797 252.35644531 C-173.84417621 262.89916475 -185.32653884 274.07247377 -195.56494141 287.06201172 C-196.4945503 288.18143253 -197.42699978 289.29849864 -198.36181641 290.41357422 C-206.38661171 300.06567445 -213.1467288 310.28446756 -219.56494141 321.06201172 C-220.22623047 322.16585205 -220.22623047 322.16585205 -220.90087891 323.29199219 C-242.71872431 360.06002029 -256.52935905 404.43359277 -256.76806641 447.38232422 C-256.77508072 448.23560303 -256.78209503 449.08888184 -256.7893219 449.96801758 C-256.80672351 452.70773672 -256.81317482 455.44723932 -256.81494141 458.18701172 C-256.81561615 459.12575134 -256.81629089 460.06449097 -256.81698608 461.03167725 C-256.80039529 475.57234836 -256.23331536 489.73345232 -253.56494141 504.06201172 C-253.28360352 505.59559326 -253.28360352 505.59559326 -252.99658203 507.16015625 C-250.99192403 517.85004371 -248.83789589 528.41390989 -245.16650391 538.67138672 C-244.49026978 541.35875869 -244.6372141 542.48467812 -245.56494141 545.06201172 C-247.83798691 546.99664597 -250.07414901 548.71911187 -252.50244141 550.43701172 C-253.97632495 551.50954594 -255.44893529 552.58383152 -256.92041016 553.65966797 C-258.07162354 554.49715576 -258.07162354 554.49715576 -259.24609375 555.3515625 C-262.99500629 558.11686901 -266.65184079 560.99708555 -270.31494141 563.87451172 C-276.67394582 568.84956641 -283.09395313 573.73360606 -289.56494141 578.56201172 C-298.31983872 585.09620005 -306.95566348 591.77194254 -315.56201172 598.5 C-320.54077129 602.38275277 -325.55648161 606.21771499 -330.56494141 610.06201172 C-332.64836386 611.66606264 -334.73169521 613.27023189 -336.81494141 614.87451172 C-342.62538879 619.34641275 -348.44999261 623.79970544 -354.27587891 628.25146484 C-358.46190927 631.45100239 -362.64180863 634.65817234 -366.81494141 637.87451172 C-369.06438216 639.60441159 -371.3144314 641.33350428 -373.56494141 643.06201172 C-374.39703125 643.70170898 -375.22912109 644.34140625 -376.08642578 645.00048828 C-378.91043299 647.16966764 -381.73743385 649.3348976 -384.56494141 651.49951172 C-385.47405273 652.19858643 -386.38316406 652.89766113 -387.31982422 653.61791992 C-388.18446289 654.27880615 -389.04910156 654.93969238 -389.93994141 655.62060547 C-390.71080078 656.21156006 -391.48166016 656.80251465 -392.27587891 657.41137695 C-394.63219486 659.11050794 -397.05425121 660.60289484 -399.56494141 662.06201172 C-426.32526047 610.46299225 -441.0169692 552.88445939 -445.56494141 495.06201172 C-445.65171143 493.99998535 -445.65171143 493.99998535 -445.74023438 492.91650391 C-453.33525794 395.42074152 -428.51389651 295.16445383 -343.56494141 168.06201172 C-342.69443331 167.01833803 -341.82467791 165.97403619 -340.95556641 164.92919922 C-331.22708492 153.29494541 -320.95289427 142.26308694 -310.23095703 131.54272461 C-308.56073046 129.87029522 -306.89871762 128.18997503 -305.23681641 126.50927734 C-298.65473049 119.89325877 -291.88103451 113.86727113 -284.56494141 108.06201172 C-283.47481587 107.13898462 -282.39019243 106.20935566 -281.31494141 105.26904297 C-214.81320249 47.36340951 -127.68763498 12.79562439 0 0 Z " fill="#EA4334" transform="translate(498.56494140625,43.93798828125)"/>
<path d="M0 0 C141.24 0 282.48 0 428 0 C433.72767843 29.59300524 438.22584498 57.14737084 438.1875 87 C438.18689575 87.87471954 438.1862915 88.74943909 438.18566895 89.65066528 C438.05379219 160.51592874 424.30913983 231.31697417 395 296 C394.62311035 296.84723633 394.2462207 297.69447266 393.85791016 298.56738281 C379.22896768 331.36929152 359.35059187 361.65724161 336.453125 389.23828125 C335.11945455 390.85517742 333.80516684 392.48506634 332.5 394.125 C328.30356828 399.37053965 323.92916136 404.20391995 319.11328125 408.88671875 C317.14860115 410.85139885 315.35137118 412.87597731 313.5625 415 C309.46648972 419.79155919 304.74950055 423.87166149 300 428 C294.91017672 426.44068998 291.43368926 423.30359066 287.4375 419.9375 C285.99751816 418.74567275 284.55610303 417.55557515 283.11328125 416.3671875 C282.05681396 415.49658691 282.05681396 415.49658691 280.97900391 414.60839844 C277.4880027 411.77115245 273.86896524 409.1131355 270.25390625 406.4375 C266.14014092 403.3773077 262.1051738 400.21561764 258.0625 397.0625 C252.88670345 393.02610723 247.7071543 388.99588199 242.5 385 C236.53010829 380.41705283 230.59045507 375.79589513 224.65234375 371.171875 C220.27855923 367.76757571 215.89641293 364.37502406 211.5 361 C205.53010829 356.41705283 199.59045507 351.79589513 193.65234375 347.171875 C189.27855923 343.76757571 184.89641293 340.37502406 180.5 337 C178.33292009 335.33386704 176.16623605 333.66722914 174 332 C173.26120605 331.4318457 172.52241211 330.86369141 171.76123047 330.27832031 C169.31760771 328.39694268 166.8772848 326.51135119 164.4375 324.625 C163.66277344 324.02945312 162.88804687 323.43390625 162.08984375 322.8203125 C158.51489346 320.05098481 155.08703336 317.32449746 152 314 C153.06476563 313.27296875 154.12953125 312.5459375 155.2265625 311.796875 C175.41651302 297.87196418 193.5450695 281.93019908 208 262 C208.41169434 261.43796875 208.82338867 260.8759375 209.24755859 260.296875 C227.35436617 235.284382 236.70203194 207.6356002 245 178 C164.15 178 83.3 178 0 178 C0 119.26 0 60.52 0 0 Z " fill="#4185F3" transform="translate(511,419)"/>
<path d="M0 0 C5.54441358 2.83381139 10.03411125 6.41038514 14.8046875 10.39453125 C18.30028377 13.28109641 21.92388189 15.98490806 25.5625 18.6875 C31.43308102 23.05303794 37.23710023 27.49326758 43 32 C48.62251569 36.39467204 54.2773499 40.73651168 60 45 C66.49948228 49.84224377 72.90328261 54.79812873 79.2890625 59.7890625 C84.15193857 63.58244005 89.05432146 67.31535871 94 71 C99.63919356 75.20143685 105.21111101 79.47973727 110.75 83.8125 C117.1918115 88.85084692 123.69627543 93.79568603 130.25 98.6875 C136.25246356 103.17789701 142.25448609 107.66801456 148.1875 112.25 C149.06100098 112.91261841 149.06100098 112.91261841 149.95214844 113.58862305 C152.6345109 115.67860989 153.89898426 116.69695278 155 120 C154.53442383 122.42236328 154.53442383 122.42236328 153.70703125 125.3203125 C153.40812988 126.40127197 153.10922852 127.48223145 152.80126953 128.59594727 C152.47497559 129.76053467 152.14868164 130.92512207 151.8125 132.125 C146.60166118 151.40043488 142.90817003 171.29587566 142.796875 191.3203125 C142.78986069 192.17359131 142.78284637 193.02687012 142.77561951 193.90600586 C142.7582179 196.64572501 142.75176659 199.38522761 142.75 202.125 C142.74932526 203.06373962 142.74865051 204.00247925 142.74795532 204.96966553 C142.76454612 219.51033664 143.33162604 233.6714406 146 248 C146.28133789 249.53358154 146.28133789 249.53358154 146.56835938 251.09814453 C148.57301738 261.788032 150.72704552 272.35189817 154.3984375 282.609375 C155.07467162 285.29674697 154.9277273 286.4226664 154 289 C151.7269545 290.93463425 149.49079239 292.65710015 147.0625 294.375 C145.58861646 295.44753423 144.11600612 296.5218198 142.64453125 297.59765625 C141.87705566 298.15598145 141.10958008 298.71430664 140.31884766 299.28955078 C136.56993512 302.05485729 132.91310061 304.93507383 129.25 307.8125 C122.89099559 312.78755469 116.47098828 317.67159434 110 322.5 C101.24510269 329.03418833 92.60927793 335.70993082 84.00292969 342.43798828 C79.02417011 346.32074106 74.00845979 350.15570327 69 354 C66.91657754 355.60405092 64.8332462 357.20822017 62.75 358.8125 C56.93955262 363.28440103 51.11494879 367.73769372 45.2890625 372.18945312 C41.10303213 375.38899067 36.92313278 378.59616062 32.75 381.8125 C30.50055925 383.54239987 28.25051001 385.27149256 26 387 C24.75186523 387.9595459 24.75186523 387.9595459 23.47851562 388.93847656 C20.65450842 391.10765592 17.82750755 393.27288588 15 395.4375 C14.09088867 396.13657471 13.18177734 396.83564941 12.24511719 397.5559082 C10.94815918 398.54723755 10.94815918 398.54723755 9.625 399.55859375 C8.85414062 400.14954834 8.08328125 400.74050293 7.2890625 401.34936523 C4.93274655 403.04849622 2.51069019 404.54088312 0 406 C-26.76031906 354.40098053 -41.4520278 296.82244767 -46 239 C-46.05784668 238.29198242 -46.11569336 237.58396484 -46.17529297 236.85449219 C-51.80336137 164.60813052 -39.31358034 91.17932165 -11.75 24.3125 C-11.26700439 23.13776123 -10.78400879 21.96302246 -10.28637695 20.75268555 C-7.26745148 13.58215649 -3.8672207 6.75062998 0 0 Z " fill="#FABB05" transform="translate(99,300)"/>
</svg>
