<?xml version="1.0" encoding="UTF-8"?>
<svg width="300" height="200" viewBox="0 0 300 200" fill="none" xmlns="http://www.w3.org/2000/svg">
  <!-- Receipt to Digital List illustration -->
  <rect x="50" y="30" width="80" height="120" rx="8" fill="#f8f9fa" stroke="#e9ecef" stroke-width="2"/>
  <!-- Receipt lines -->
  <line x1="60" y1="50" x2="120" y2="50" stroke="#6c757d" stroke-width="2"/>
  <line x1="60" y1="65" x2="110" y2="65" stroke="#6c757d" stroke-width="2"/>
  <line x1="60" y1="80" x2="125" y2="80" stroke="#6c757d" stroke-width="2"/>
  <line x1="60" y1="95" x2="105" y2="95" stroke="#6c757d" stroke-width="2"/>
  
  <!-- Arrow -->
  <path d="M145 95 L165 95 M155 85 L165 95 L155 105" stroke="#007bff" stroke-width="3" fill="none"/>
  
  <!-- Phone with digital list -->
  <rect x="180" y="40" width="70" height="120" rx="15" fill="#007bff"/>
  <rect x="190" y="55" width="50" height="90" rx="5" fill="#ffffff"/>
  <!-- List items -->
  <circle cx="200" cy="70" r="3" fill="#28a745"/>
  <line x1="210" y1="70" x2="230" y2="70" stroke="#6c757d" stroke-width="2"/>
  <circle cx="200" cy="85" r="3" fill="#28a745"/>
  <line x1="210" y1="85" x2="230" y2="85" stroke="#6c757d" stroke-width="2"/>
  <circle cx="200" cy="100" r="3" fill="#28a745"/>
  <line x1="210" y1="100" x2="230" y2="100" stroke="#6c757d" stroke-width="2"/>
</svg>
